<?xml version="1.0" encoding="utf-8"?>
<!-- Generator: Adobe Illustrator 16.0.0, SVG Export Plug-In . SVG Version: 6.00 Build 0)  -->
<!DOCTYPE svg PUBLIC "-//W3C//DTD SVG 1.1//EN" "http://www.w3.org/Graphics/SVG/1.1/DTD/svg11.dtd">
<svg version="1.1" id="Capa_1" xmlns="http://www.w3.org/2000/svg" xmlns:xlink="http://www.w3.org/1999/xlink" x="0px" y="0px"
	 width="300px" height="57.957px" viewBox="0 0 300 57.957" enable-background="new 0 0 300 57.957" xml:space="preserve">
<g>
	<g>
		<g>
			<rect fill="#FFF000" width="300" height="57.957"/>
		</g>
	</g>
	<g>
		<path fill="#121212" d="M16.9,30.958c0.073,0.559,0.106,1.262,0.104,2.119l-0.019,9.709l-1.965-0.002l0.028-14.399l1.886,0.005
			l6.744,9.389l6.322-9.364l2.155,0.005l-0.031,14.396l-2.153-0.005l0.02-9.71l0.11-2.115c-0.308,0.664-0.587,1.188-0.836,1.556
			l-5.327,7.997l-0.592-0.002l-5.503-7.791C17.625,32.447,17.312,31.853,16.9,30.958z"/>
		<path fill="#121212" d="M32.315,42.815l7.625-14.382l2.479,0.005l7.7,14.414l-2.557-0.006l-1.77-3.548l-9.405-0.018l-1.786,3.541
			L32.315,42.815z M37.362,37.442l7.489,0.016l-3.728-7.372L37.362,37.442z"/>
		<path fill="#121212" d="M50.307,42.853l0.032-14.398l11.184,0.024c1.021,0.002,1.764,0.221,2.229,0.658
			c0.465,0.438,0.698,1.152,0.696,2.14l-0.006,3.207c-0.002,0.982-0.239,1.699-0.705,2.132c-0.466,0.442-1.209,0.651-2.23,0.651
			l-2.044-0.005l6.345,5.62l-3.447-0.007l-5.641-5.621l-4.084-0.007l-0.011,5.61L50.307,42.853z M60.626,30.344l-7.977-0.017
			l-0.01,5.055l7.977,0.016c0.557,0,0.945-0.099,1.172-0.304c0.223-0.211,0.337-0.597,0.338-1.172l0.003-2.094
			c0.001-0.557-0.111-0.951-0.333-1.157C61.571,30.454,61.183,30.346,60.626,30.344z"/>
		<path fill="#121212" d="M78.178,30.436l-9.644-0.018l-0.021,10.467l9.645,0.017l0.007-3.604l2.313,0.509l-0.004,1.704
			c-0.002,1.343-0.227,2.243-0.676,2.703c-0.45,0.468-1.304,0.7-2.562,0.698l-7.786-0.023c-1.254-0.002-2.112-0.234-2.569-0.714
			c-0.46-0.478-0.685-1.374-0.682-2.691l0.014-7.593c0.003-1.323,0.235-2.218,0.693-2.688c0.459-0.477,1.316-0.71,2.572-0.708
			l7.785,0.016c1.259,0.002,2.113,0.23,2.56,0.694c0.448,0.458,0.671,1.351,0.667,2.688l-0.002,1.368l-2.316,0.439L78.178,30.436z"
			/>
		<path fill="#121212" d="M87.892,42.932l0.027-14.4l11.189,0.021c1.021,0.003,1.764,0.224,2.23,0.662
			c0.464,0.438,0.698,1.147,0.695,2.133l-0.003,1.678c-0.005,1.431-0.771,2.243-2.296,2.446c1.58,0.212,2.367,1.151,2.363,2.827
			l-0.003,1.839c-0.003,1.886-1.288,2.819-3.85,2.814L87.892,42.932z M99.778,39.268l0.002-1.198
			c0.002-0.669-0.111-1.13-0.332-1.371c-0.226-0.235-0.623-0.362-1.198-0.362l-8.028-0.017l-0.009,4.636l8.028,0.016
			c0.575,0,0.973-0.117,1.2-0.359C99.663,40.368,99.777,39.919,99.778,39.268z M99.685,33.182l0.003-1.45
			c0.001-0.497-0.111-0.83-0.338-1.003c-0.222-0.17-0.588-0.253-1.087-0.253l-8.029-0.017l-0.007,3.991l8.029,0.016
			C99.204,34.468,99.681,34.038,99.685,33.182z"/>
		<path fill="#121212" d="M103.032,42.962l0.032-14.4l11.184,0.022c1.021,0.002,1.764,0.224,2.229,0.662
			c0.465,0.438,0.699,1.15,0.697,2.132l-0.006,3.21c-0.002,0.99-0.239,1.699-0.706,2.132c-0.466,0.44-1.209,0.658-2.23,0.656
			l-2.043-0.004l6.344,5.623l-3.446-0.007l-5.641-5.621l-4.083-0.009l-0.012,5.608L103.032,42.962z M113.35,30.452l-7.976-0.017
			l-0.009,5.048l7.975,0.019c0.558,0,0.946-0.098,1.172-0.308c0.224-0.196,0.337-0.593,0.338-1.172l0.004-2.09
			c0.001-0.559-0.111-0.94-0.333-1.159C114.295,30.559,113.907,30.453,113.35,30.452z"/>
		<path fill="#121212" d="M121.302,28.599l-0.024,12.39l10.128,0.02l0.024-12.387l2.317,0.004l-0.021,10.99
			c-0.002,1.326-0.231,2.222-0.682,2.698c-0.451,0.469-1.305,0.707-2.563,0.704l-8.261-0.015c-1.256-0.003-2.116-0.245-2.572-0.722
			c-0.458-0.471-0.688-1.37-0.686-2.694l0.022-10.993L121.302,28.599z"/>
		<path fill="#121212" d="M135.447,43.029l0.028-14.398l1.455,0.003l10.381,9.647c0.5,0.463,1.03,1.067,1.584,1.818
			c-0.145-0.895-0.213-2.074-0.21-3.546l0.015-7.896l2.156,0.004l-0.027,14.396l-1.293-0.002L138.859,33.02
			c-0.395-0.372-0.618-0.587-0.673-0.643c-0.287-0.298-0.526-0.632-0.726-0.983c0.106,0.855,0.16,1.912,0.156,3.154l-0.017,8.485
			L135.447,43.029z"/>
		<path fill="#121212" d="M150.989,43.06l7.621-14.384l2.482,0.005l7.699,14.413l-2.559-0.005l-1.771-3.548l-9.4-0.018l-1.784,3.541
			L150.989,43.06z M156.039,37.686l7.485,0.016l-3.731-7.378L156.039,37.686z"/>
		<path fill="#121212" stroke="#121212" stroke-width="0.5915" stroke-miterlimit="10" d="M183.119,43.118l0.027-14.401
			l14.062,0.028l-0.005,2.516l-10.83-0.021l-0.007,3.794l5.847,0.012l-0.005,2.622l-5.847-0.011l-0.011,5.467L183.119,43.118z"/>
		<path fill="#121212" stroke="#121212" stroke-width="0.5915" stroke-miterlimit="10" d="M202.949,28.754l-0.022,11.692l9.21,0.017
			l0.021-11.688l3.232,0.006l-0.021,10.996c-0.002,1.335-0.247,2.234-0.728,2.702c-0.49,0.468-1.395,0.692-2.727,0.69l-8.784-0.018
			c-1.323-0.003-2.232-0.23-2.718-0.7c-0.485-0.469-0.722-1.371-0.717-2.704l0.02-11.001L202.949,28.754z"/>
		<path fill="#121212" stroke="#121212" stroke-width="0.5915" stroke-miterlimit="10" d="M230.498,31.322l-9.131-0.015l-0.007,3.1
			l8.688,0.015c1.337,0.003,2.248,0.232,2.744,0.701c0.49,0.469,0.735,1.371,0.732,2.705l-0.002,1.985
			c-0.005,1.342-0.253,2.245-0.743,2.703c-0.497,0.47-1.406,0.699-2.74,0.697l-8.591-0.016c-1.332-0.002-2.244-0.24-2.729-0.708
			c-0.496-0.461-0.743-1.372-0.741-2.707v-0.388l2.861-0.615l-0.005,1.704l9.829,0.019l0.006-3.291l-8.668-0.019
			c-1.337-0.002-2.241-0.238-2.727-0.699c-0.479-0.471-0.721-1.373-0.719-2.714l0.005-1.587c0.002-1.343,0.247-2.24,0.735-2.708
			c0.479-0.461,1.387-0.69,2.721-0.688l7.895,0.015c1.269,0.003,2.162,0.226,2.676,0.672c0.514,0.451,0.764,1.275,0.76,2.483v0.31
			l-2.852,0.695L230.498,31.322z"/>
		<path fill="#121212" stroke="#121212" stroke-width="0.5915" stroke-miterlimit="10" d="M244.61,31.403l-0.022,11.837
			l-3.233-0.007l0.022-11.833l-6.386-0.017l0.004-2.563l16.032,0.031l-0.004,2.566L244.61,31.403z"/>
		<path fill="#121212" stroke="#121212" stroke-width="0.5915" stroke-miterlimit="10" d="M253.028,43.256l0.029-14.401
			l14.217,0.027l-0.004,2.455l-10.985-0.021l-0.007,3.21l6.413,0.011l-0.008,2.453l-6.41-0.011l-0.008,3.578l11.126,0.022
			l-0.005,2.705L253.028,43.256z"/>
		<path fill="#121212" stroke="#121212" stroke-width="0.5915" stroke-miterlimit="10" d="M269.49,43.292l0.026-14.403l11.908,0.026
			c2.081,0.004,3.118,0.935,3.113,2.792l-0.007,3.38c-0.002,1.857-1.04,2.786-3.123,2.782l-1.836-0.005l6.4,5.459l-4.635-0.01
			l-5.594-5.456l-3.064-0.007l-0.013,5.448L269.49,43.292z M279.965,31.364l-7.273-0.016l-0.007,4.049l7.273,0.014
			c0.497,0.002,0.849-0.052,1.046-0.17c0.271-0.161,0.41-0.49,0.41-0.979l0.005-1.743c0-0.488-0.137-0.815-0.408-0.979
			C280.814,31.422,280.464,31.364,279.965,31.364z"/>
	</g>
	<g>
		
			<line fill="none" stroke="#121212" stroke-width="1.538" stroke-miterlimit="10" x1="15.858" y1="20.489" x2="15.858" y2="0.001"/>
		
			<line fill="none" stroke="#121212" stroke-width="1.538" stroke-miterlimit="10" x1="49.393" y1="20.489" x2="49.393" y2="0.001"/>
		
			<line fill="none" stroke="#121212" stroke-width="1.538" stroke-miterlimit="10" x1="82.928" y1="20.489" x2="82.928" y2="0.001"/>
		
			<line fill="none" stroke="#121212" stroke-width="1.538" stroke-miterlimit="10" x1="116.464" y1="20.489" x2="116.464" y2="0.001"/>
		<line fill="none" stroke="#121212" stroke-width="1.538" stroke-miterlimit="10" x1="150" y1="20.489" x2="150" y2="0.001"/>
		
			<line fill="none" stroke="#121212" stroke-width="1.538" stroke-miterlimit="10" x1="183.531" y1="20.489" x2="183.531" y2="0.001"/>
		
			<line fill="none" stroke="#121212" stroke-width="1.538" stroke-miterlimit="10" x1="217.071" y1="20.487" x2="217.071" y2="0.001"/>
		
			<line fill="none" stroke="#121212" stroke-width="1.538" stroke-miterlimit="10" x1="250.604" y1="20.489" x2="250.604" y2="0.001"/>
		
			<line fill="none" stroke="#121212" stroke-width="1.538" stroke-miterlimit="10" x1="284.144" y1="20.489" x2="284.144" y2="0.001"/>
		
			<line fill="none" stroke="#121212" stroke-width="1.538" stroke-miterlimit="10" x1="32.626" y1="15.092" x2="32.626" y2="0.001"/>
		
			<line fill="none" stroke="#121212" stroke-width="1.538" stroke-miterlimit="10" x1="66.163" y1="15.092" x2="66.163" y2="0.001"/>
		
			<line fill="none" stroke="#121212" stroke-width="1.538" stroke-miterlimit="10" x1="99.698" y1="15.092" x2="99.698" y2="0.001"/>
		
			<line fill="none" stroke="#121212" stroke-width="1.538" stroke-miterlimit="10" x1="133.234" y1="15.092" x2="133.234" y2="0.001"/>
		
			<line fill="none" stroke="#121212" stroke-width="1.538" stroke-miterlimit="10" x1="166.765" y1="15.092" x2="166.765" y2="0.001"/>
		
			<line fill="none" stroke="#121212" stroke-width="1.538" stroke-miterlimit="10" x1="200.306" y1="15.092" x2="200.306" y2="0.001"/>
		
			<line fill="none" stroke="#121212" stroke-width="1.538" stroke-miterlimit="10" x1="233.837" y1="15.092" x2="233.837" y2="0.001"/>
		
			<line fill="none" stroke="#121212" stroke-width="1.538" stroke-miterlimit="10" x1="267.378" y1="15.092" x2="267.378" y2="0.001"/>
	</g>
</g>
</svg>
